HIERARCHY
ROOT SimulationBone
{
	OFFSET 0.000000 0.000000 0.000000
	CHANNELS 6 Xposition Yposition Zposition Zrotation Yrotation Xrotation 
	JOINT Hips
	{
		OFFSET 0.000000 0.000000 0.000000
		CHANNELS 6 Xposition Yposition Zposition Zrotation Yrotation Xrotation 
		JOINT LeftUpLeg
		{
			OFFSET 0.103457 1.857834 10.548504
			CHANNELS 3 Zrotation Yrotation Xrotation
			JOINT LeftLeg
			{
				OFFSET 43.499996 -0.000046 0.000000
				CHANNELS 3 Zrotation Yrotation Xrotation
				JOINT LeftFoot
				{
					OFFSET 42.372192 0.000027 0.000002
					CHANNELS 3 Zrotation Yrotation Xrotation
					JOINT LeftToe
					{
						OFFSET 17.299994 -0.000003 -0.000001
						CHANNELS 3 Zrotation Yrotation Xrotation
						End Site
						{
							OFFSET 0.000000 0.000000 0.000000
						}
					}
				}
			}
		}
		JOINT RightUpLeg
		{
			OFFSET 0.103456 1.857832 -10.548504
			CHANNELS 3 Zrotation Yrotation Xrotation
			JOINT RightLeg
			{
				OFFSET 43.500046 -0.000011 0.000010
				CHANNELS 3 Zrotation Yrotation Xrotation
				JOINT RightFoot
				{
					OFFSET 42.372261 -0.000034 0.000021
					CHANNELS 3 Zrotation Yrotation Xrotation
					JOINT RightToe
					{
						OFFSET 17.300011 0.000001 0.000002
						CHANNELS 3 Zrotation Yrotation Xrotation
						End Site
						{
							OFFSET 0.000000 0.000000 0.000000
						}
					}
				}
			}
		}
		JOINT Spine
		{
			OFFSET 6.901965 -2.603721 0.000001
			CHANNELS 3 Zrotation Yrotation Xrotation
			JOINT Spine1
			{
				OFFSET 12.588100 0.000000 -0.000000
				CHANNELS 3 Zrotation Yrotation Xrotation
				JOINT Spine2
				{
					OFFSET 12.343206 0.000005 0.000000
					CHANNELS 3 Zrotation Yrotation Xrotation
					JOINT Neck
					{
						OFFSET 25.832893 -0.000008 0.000000
						CHANNELS 3 Zrotation Yrotation Xrotation
						JOINT Head
						{
							OFFSET 11.766617 0.000009 0.000001
							CHANNELS 3 Zrotation Yrotation Xrotation
							End Site
							{
								OFFSET 0.000000 0.000000 0.000000
							}
						}
					}
					JOINT LeftShoulder
					{
						OFFSET 19.745899 -1.480394 6.000106
						CHANNELS 3 Zrotation Yrotation Xrotation
						JOINT LeftArm
						{
							OFFSET 11.284122 -0.000030 -0.000014
							CHANNELS 3 Zrotation Yrotation Xrotation
							JOINT LeftForeArm
							{
								OFFSET 33.000050 0.000020 0.000016
								CHANNELS 3 Zrotation Yrotation Xrotation
								JOINT LeftHand
								{
									OFFSET 25.200014 -0.000003 0.000011
									CHANNELS 3 Zrotation Yrotation Xrotation
									End Site
									{
										OFFSET 0.000000 0.000000 0.000000
									}
								}
							}
						}
					}
					JOINT RightShoulder
					{
						OFFSET 19.746094 -1.480381 -6.000073
						CHANNELS 3 Zrotation Yrotation Xrotation
						JOINT RightArm
						{
							OFFSET 11.284140 -0.000016 -0.000006
							CHANNELS 3 Zrotation Yrotation Xrotation
							JOINT RightForeArm
							{
								OFFSET 33.000088 0.000015 0.000002
								CHANNELS 3 Zrotation Yrotation Xrotation
								JOINT RightHand
								{
									OFFSET 25.199776 0.000133 0.000416
									CHANNELS 3 Zrotation Yrotation Xrotation
									End Site
									{
										OFFSET 0.000000 0.000000 0.000000
									}
								}
							}
						}
					}
				}
			}
		}
	}
}
MOTION
Frames: 6
Frame Time: 0.033333
65.654565 0.000000 -185.750802 180.000000 -61.212868 180.000000 -14.346939 92.348778 -0.949793 77.900401 -1.543300 -176.999414 135.373967 -4.049695 175.597443 -62.607037 1.687136 0.366485 72.889347 -3.225086 -9.221590 21.454551 0.003098 -0.000001 157.339418 -3.410008 -167.055212 -51.286244 2.308552 4.641868 67.115754 -3.941204 -1.430429 21.454553 -0.003104 -0.000015 14.028951 0.220666 1.302642 18.047810 0.235169 2.623669 17.730073 0.251145 2.622217 -9.757128 -1.794750 -8.368397 -28.595427 6.580131 -12.377262 140.908005 -78.206240 38.283439 -16.732845 46.327500 4.365742 -104.423497 -0.010883 2.946267 12.048943 5.228129 29.715640 100.559011 69.850746 -79.703848 -33.175171 -39.701253 -6.048545 -44.926867 22.898407 -2.145576 14.365206 2.120688 -17.953478 
63.580350 0.000000 -180.944649 180.000000 -58.568639 180.000000 -13.154871 93.488113 0.496590 77.887160 -0.567039 -176.726527 134.960098 -3.611490 176.215370 -53.534924 0.927638 -1.084434 71.015785 -4.180469 -14.942120 21.454557 0.003101 -0.000002 160.700527 -3.618796 -168.886659 -50.623900 2.522094 2.999243 61.819639 -1.324353 2.324520 21.454555 -0.003102 -0.000019 13.627920 -0.010104 1.427591 17.240139 -0.233104 2.837613 16.922463 -0.215835 2.838976 -9.047442 -2.463315 -8.164498 -29.376992 7.711010 -13.051739 146.480947 -79.054392 32.580002 -6.409543 48.452819 11.698934 -105.446407 0.323622 2.967941 14.050950 8.280632 24.673746 102.587918 70.838631 -77.579993 -27.381260 -44.127212 -9.409160 -44.521123 23.240866 -2.156003 14.789793 0.446151 -16.662747 
61.222808 0.000000 -176.362305 180.000000 -56.002235 180.000000 -11.756792 93.420982 1.511943 78.302231 0.775769 -176.662124 134.697532 -4.122891 176.506268 -45.748812 0.819879 -0.518723 70.320581 -5.099111 -16.174335 21.454553 0.003083 0.000004 163.648518 -3.660790 -169.388719 -52.780847 2.561203 1.657775 60.756937 1.415728 6.389616 21.454555 -0.003107 -0.000019 13.279148 -0.127861 1.499716 16.539510 -0.469077 2.965614 16.221870 -0.451019 2.968403 -9.249881 -3.007080 -7.769426 -28.542814 8.715323 -13.257127 148.080031 -79.340208 30.941116 5.192207 49.704253 18.577102 -105.756101 0.569252 2.964463 11.492396 11.507031 19.637318 103.989070 71.498174 -76.114180 -20.643664 -47.173074 -14.445862 -44.873762 23.108781 -2.158006 13.259283 0.499608 -14.165030 
58.595902 0.000000 -171.991060 180.000000 -53.524529 180.000000 -10.327754 91.999939 2.093219 79.539078 1.592443 -177.452297 135.248455 -4.899599 176.793969 -40.799691 0.370850 -0.936978 69.615870 -5.819930 -18.929565 21.454553 0.003093 -0.000003 166.058168 -3.825387 -171.025369 -58.132751 2.000279 0.974182 62.081461 3.722756 10.863860 21.454553 -0.003108 -0.000012 13.104829 -0.344852 1.583686 16.184984 -0.908124 3.103444 15.867359 -0.889239 3.108875 -9.931878 -3.699555 -7.322159 -27.490456 9.431254 -13.295971 152.240286 -80.716211 26.641209 12.723206 50.657724 24.035185 -104.916302 0.277484 2.947884 8.186295 10.008228 14.156709 101.621392 72.560562 -78.377677 -15.445332 -49.784252 -20.044983 -44.599308 23.067866 -2.146832 12.790978 1.357171 -11.121488 
55.713596 0.000000 -167.818206 180.000000 -51.144317 180.000000 -9.262928 89.808182 2.287811 81.221966 2.014764 -179.149903 136.231251 -6.321700 176.155824 -41.258813 -0.431341 -2.961961 68.575543 -4.091575 -17.870652 21.454553 0.003087 -0.000001 167.665599 -3.503299 -174.136807 -65.471571 2.800915 0.859301 65.647011 3.501494 11.083251 21.454563 -0.003108 -0.000019 13.056310 -0.619966 1.735538 16.079331 -1.475381 3.368057 15.761715 -1.454898 3.376905 -9.703970 -5.206074 -6.713530 -27.953101 10.377584 -13.757989 158.081614 -81.069633 20.709178 14.732797 49.829293 25.765208 -102.964002 0.009007 2.880569 5.514567 6.575619 9.741433 96.293817 72.896471 -83.661027 -10.808289 -51.971688 -24.625421 -43.914080 23.063235 -2.125677 11.901215 2.126175 -8.340635 
52.589851 0.000000 -163.831034 180.000000 -48.868315 180.000000 -8.726113 86.831009 1.869064 83.482336 1.056331 178.296792 137.813902 -6.754703 172.453643 -51.258941 -0.111952 -5.288624 78.105856 1.358648 -9.443181 21.454553 0.003098 -0.000000 167.419439 -1.196703 -173.912490 -75.716834 1.152229 1.802129 69.494689 1.849041 9.255108 21.454560 -0.003108 -0.000014 13.087667 -1.218058 1.814913 16.126454 -2.677401 3.442822 15.808620 -2.656440 3.458920 -8.408653 -5.993447 -5.458505 -27.457169 11.550705 -13.226906 161.886152 -81.069018 16.857033 12.932742 47.920228 24.163343 -100.802404 -0.369964 2.811333 5.956830 5.253494 5.955029 93.576139 72.146803 -86.439493 -6.484970 -52.347383 -28.925349 -43.889235 22.800404 -2.107409 10.361146 2.974844 -9.457281 
